<svg xmlns="http://www.w3.org/2000/svg" viewBox="0 0 546 545"><defs><style>.cls-1{fill:#fff;}.cls-2{fill:#2ecc71;}</style></defs><title>Artboard 1 copy 2</title><g id="Layer_1" data-name="Layer 1"><rect class="cls-1" x="0.49" y="-0.24" width="545.43" height="545.18"/></g><g id="Layer_3" data-name="Layer 3"><path class="cls-2" d="M68.32,262.43V51.4H96.19V237.74H259.46v24.69Z"/><path class="cls-2" d="M375,266.41q-22.71,0-41.42-8.56a101.68,101.68,0,0,1-32.45-23.3,105.56,105.56,0,0,1-21.31-34.24,112.55,112.55,0,0,1-7.56-41A110.89,110.89,0,0,1,280,117.88a108.7,108.7,0,0,1,21.5-34.25,104.65,104.65,0,0,1,32.46-23.5,95.67,95.67,0,0,1,41-8.76,97,97,0,0,1,41.21,8.76,104,104,0,0,1,32.66,23.5,108.7,108.7,0,0,1,21.5,34.25,110.89,110.89,0,0,1,7.77,41.41,112.55,112.55,0,0,1-7.57,41,105.87,105.87,0,0,1-21.3,34.24,101.14,101.14,0,0,1-32.66,23.3A99.7,99.7,0,0,1,375,266.41ZM299.68,159.69a86.4,86.4,0,0,0,6,32.45,88,88,0,0,0,16.12,26.29,73,73,0,0,0,23.9,17.72A68.68,68.68,0,0,0,375,242.52,67,67,0,0,0,404.22,236,78,78,0,0,0,428.31,218a85.6,85.6,0,0,0,16.33-26.48,91.75,91.75,0,0,0,0-65.11,85,85,0,0,0-16.33-26.68,77.85,77.85,0,0,0-24.09-17.92A67,67,0,0,0,375,75.27a65.67,65.67,0,0,0-29.07,6.57A77.1,77.1,0,0,0,322,100a87.59,87.59,0,0,0-16.32,26.88A89.61,89.61,0,0,0,299.68,159.69Z"/><path class="cls-2" d="M153.42,489.34,69,281.87H96.87l71.28,182.38,71.68-182.38h26.28L181.69,489.34Z"/><path class="cls-2" d="M352,493.32a73.31,73.31,0,0,1-27.28-5,68.71,68.71,0,0,1-21.9-13.73,61.93,61.93,0,0,1-19.71-45.8,51.12,51.12,0,0,1,6.37-25.09,60.77,60.77,0,0,1,17.92-19.91,87.8,87.8,0,0,1,27.48-12.94,126.58,126.58,0,0,1,35-4.58,191.33,191.33,0,0,1,32.26,2.79,140.15,140.15,0,0,1,29.07,8V358.33q0-27.48-15.53-43.61t-43-16.13A91.59,91.59,0,0,0,340.09,305a157.61,157.61,0,0,0-33.84,18.32l-9.56-17.92q40.21-27.08,78.05-27.08,39,0,61.33,21.9t22.3,60.53V454.3q0,11.15,9.95,11.15v23.89A64.06,64.06,0,0,1,458,490.53q-10.37,0-16.13-5.17T435.67,471l-.8-16.33a94.05,94.05,0,0,1-36,28.68A111,111,0,0,1,352,493.32Zm6.37-20.71a93.65,93.65,0,0,0,38.83-8q17.72-8,26.88-21.11a24.74,24.74,0,0,0,5.38-7.76,19.94,19.94,0,0,0,1.79-7.77V394.17a166.42,166.42,0,0,0-28.08-8,157.84,157.84,0,0,0-29.66-2.79q-28.68,0-46.6,11.95T309,426.82a42.87,42.87,0,0,0,3.79,17.92,45.35,45.35,0,0,0,10.35,14.53A48.38,48.38,0,0,0,338.9,469,53,53,0,0,0,358.41,472.61Z"/></g></svg>